<mxfile host="app.diagrams.net" modified="2021-04-17T10:45:12.290Z" agent="5.0 (Windows NT 10.0; Win64; x64) AppleWebKit/537.36 (KHTML, like Gecko) Chrome/89.0.4389.128 Safari/537.36" etag="f9qKHtAqutJkqQX2v6lN" version="14.6.1" type="github">
  <diagram id="8NwfaTqwcFI7C_ga3qwB" name="Page-1">
    <mxGraphModel dx="1059" dy="592" grid="0" gridSize="10" guides="1" tooltips="1" connect="1" arrows="1" fold="1" page="1" pageScale="1" pageWidth="1169" pageHeight="827" math="0" shadow="0">
      <root>
        <mxCell id="0" />
        <mxCell id="1" parent="0" />
        <mxCell id="-22u8Rxw5Q-brh8yjIGj-1" value="Stadium" style="rounded=0;whiteSpace=wrap;html=1;" vertex="1" parent="1">
          <mxGeometry x="160" y="120" width="120" height="60" as="geometry" />
        </mxCell>
        <mxCell id="-22u8Rxw5Q-brh8yjIGj-12" value="Played" style="rhombus;whiteSpace=wrap;html=1;" vertex="1" parent="1">
          <mxGeometry x="390" y="310" width="80" height="80" as="geometry" />
        </mxCell>
        <mxCell id="-22u8Rxw5Q-brh8yjIGj-14" value="Player" style="rounded=0;whiteSpace=wrap;html=1;" vertex="1" parent="1">
          <mxGeometry x="580" y="320" width="120" height="60" as="geometry" />
        </mxCell>
        <mxCell id="-22u8Rxw5Q-brh8yjIGj-15" value="Match" style="rounded=0;whiteSpace=wrap;html=1;" vertex="1" parent="1">
          <mxGeometry x="150" y="320" width="120" height="60" as="geometry" />
        </mxCell>
        <mxCell id="-22u8Rxw5Q-brh8yjIGj-18" value="Player_of" style="rhombus;whiteSpace=wrap;html=1;" vertex="1" parent="1">
          <mxGeometry x="530" y="505" width="80" height="80" as="geometry" />
        </mxCell>
        <mxCell id="-22u8Rxw5Q-brh8yjIGj-31" value="Team_played" style="rhombus;whiteSpace=wrap;html=1;" vertex="1" parent="1">
          <mxGeometry x="240" y="505" width="80" height="80" as="geometry" />
        </mxCell>
        <mxCell id="-22u8Rxw5Q-brh8yjIGj-32" value="Team" style="rounded=0;whiteSpace=wrap;html=1;" vertex="1" parent="1">
          <mxGeometry x="370" y="522.5" width="110" height="45" as="geometry" />
        </mxCell>
        <mxCell id="-22u8Rxw5Q-brh8yjIGj-42" value="Name" style="ellipse;whiteSpace=wrap;html=1;verticalAlign=middle;" vertex="1" parent="1">
          <mxGeometry x="500" y="615" width="110" height="35" as="geometry" />
        </mxCell>
        <mxCell id="-22u8Rxw5Q-brh8yjIGj-44" value="Captain" style="ellipse;whiteSpace=wrap;html=1;verticalAlign=middle;" vertex="1" parent="1">
          <mxGeometry x="470" y="670" width="110" height="35" as="geometry" />
        </mxCell>
        <mxCell id="-22u8Rxw5Q-brh8yjIGj-46" value="ranking" style="ellipse;whiteSpace=wrap;html=1;verticalAlign=middle;" vertex="1" parent="1">
          <mxGeometry x="300" y="670" width="110" height="35" as="geometry" />
        </mxCell>
        <mxCell id="-22u8Rxw5Q-brh8yjIGj-47" value="Coaach" style="ellipse;shape=doubleEllipse;margin=3;whiteSpace=wrap;html=1;align=center;" vertex="1" parent="1">
          <mxGeometry x="375" y="710" width="100" height="40" as="geometry" />
        </mxCell>
        <mxCell id="-22u8Rxw5Q-brh8yjIGj-48" value="team_id" style="ellipse;whiteSpace=wrap;html=1;align=center;fontStyle=4;" vertex="1" parent="1">
          <mxGeometry x="250" y="615" width="100" height="40" as="geometry" />
        </mxCell>
        <mxCell id="-22u8Rxw5Q-brh8yjIGj-50" value="Coach_name" style="ellipse;whiteSpace=wrap;html=1;align=center;" vertex="1" parent="1">
          <mxGeometry x="460" y="770" width="100" height="40" as="geometry" />
        </mxCell>
        <mxCell id="-22u8Rxw5Q-brh8yjIGj-51" value="Coach_id" style="ellipse;whiteSpace=wrap;html=1;align=center;" vertex="1" parent="1">
          <mxGeometry x="305" y="770" width="100" height="40" as="geometry" />
        </mxCell>
        <mxCell id="-22u8Rxw5Q-brh8yjIGj-54" value="" style="endArrow=none;html=1;rounded=0;entryX=0.5;entryY=0;entryDx=0;entryDy=0;exitX=0.5;exitY=0;exitDx=0;exitDy=0;" edge="1" parent="1" source="-22u8Rxw5Q-brh8yjIGj-51" target="-22u8Rxw5Q-brh8yjIGj-50">
          <mxGeometry relative="1" as="geometry">
            <mxPoint x="330" y="770" as="sourcePoint" />
            <mxPoint x="490" y="770" as="targetPoint" />
            <Array as="points">
              <mxPoint x="430" y="750" />
            </Array>
          </mxGeometry>
        </mxCell>
        <mxCell id="-22u8Rxw5Q-brh8yjIGj-56" value="" style="endArrow=none;html=1;rounded=0;entryX=0.5;entryY=1;entryDx=0;entryDy=0;exitX=0.5;exitY=0;exitDx=0;exitDy=0;" edge="1" parent="1" source="-22u8Rxw5Q-brh8yjIGj-48" target="-22u8Rxw5Q-brh8yjIGj-32">
          <mxGeometry relative="1" as="geometry">
            <mxPoint x="330" y="620" as="sourcePoint" />
            <mxPoint x="490" y="620" as="targetPoint" />
          </mxGeometry>
        </mxCell>
        <mxCell id="-22u8Rxw5Q-brh8yjIGj-57" value="" style="endArrow=none;html=1;rounded=0;exitX=0;exitY=0.5;exitDx=0;exitDy=0;entryX=0.5;entryY=1;entryDx=0;entryDy=0;" edge="1" parent="1" source="-22u8Rxw5Q-brh8yjIGj-42" target="-22u8Rxw5Q-brh8yjIGj-32">
          <mxGeometry relative="1" as="geometry">
            <mxPoint x="310" y="625" as="sourcePoint" />
            <mxPoint x="420" y="570" as="targetPoint" />
          </mxGeometry>
        </mxCell>
        <mxCell id="-22u8Rxw5Q-brh8yjIGj-58" value="" style="endArrow=none;html=1;rounded=0;entryX=0.5;entryY=1;entryDx=0;entryDy=0;exitX=0;exitY=0.5;exitDx=0;exitDy=0;" edge="1" parent="1" source="-22u8Rxw5Q-brh8yjIGj-44" target="-22u8Rxw5Q-brh8yjIGj-32">
          <mxGeometry relative="1" as="geometry">
            <mxPoint x="320" y="635" as="sourcePoint" />
            <mxPoint x="445" y="587.5" as="targetPoint" />
          </mxGeometry>
        </mxCell>
        <mxCell id="-22u8Rxw5Q-brh8yjIGj-59" value="" style="endArrow=none;html=1;rounded=0;entryX=0.5;entryY=1;entryDx=0;entryDy=0;exitX=0.5;exitY=0;exitDx=0;exitDy=0;" edge="1" parent="1" source="-22u8Rxw5Q-brh8yjIGj-46" target="-22u8Rxw5Q-brh8yjIGj-32">
          <mxGeometry relative="1" as="geometry">
            <mxPoint x="330" y="645" as="sourcePoint" />
            <mxPoint x="455" y="597.5" as="targetPoint" />
          </mxGeometry>
        </mxCell>
        <mxCell id="-22u8Rxw5Q-brh8yjIGj-60" value="" style="endArrow=none;html=1;rounded=0;entryX=0.5;entryY=1;entryDx=0;entryDy=0;exitX=0.5;exitY=0;exitDx=0;exitDy=0;" edge="1" parent="1" source="-22u8Rxw5Q-brh8yjIGj-47" target="-22u8Rxw5Q-brh8yjIGj-32">
          <mxGeometry relative="1" as="geometry">
            <mxPoint x="340" y="655" as="sourcePoint" />
            <mxPoint x="465" y="607.5" as="targetPoint" />
          </mxGeometry>
        </mxCell>
        <mxCell id="-22u8Rxw5Q-brh8yjIGj-61" value="Played_at" style="shape=rhombus;perimeter=rhombusPerimeter;whiteSpace=wrap;html=1;align=center;" vertex="1" parent="1">
          <mxGeometry x="180" y="210" width="120" height="60" as="geometry" />
        </mxCell>
        <mxCell id="-22u8Rxw5Q-brh8yjIGj-62" value="" style="fontSize=12;html=1;endArrow=ERone;endFill=1;exitX=0.5;exitY=0;exitDx=0;exitDy=0;entryX=0.5;entryY=1;entryDx=0;entryDy=0;edgeStyle=orthogonalEdgeStyle;" edge="1" parent="1" source="-22u8Rxw5Q-brh8yjIGj-61" target="-22u8Rxw5Q-brh8yjIGj-1">
          <mxGeometry width="100" height="100" relative="1" as="geometry">
            <mxPoint x="280" y="230" as="sourcePoint" />
            <mxPoint x="280" y="210" as="targetPoint" />
          </mxGeometry>
        </mxCell>
        <mxCell id="-22u8Rxw5Q-brh8yjIGj-63" value="" style="edgeStyle=orthogonalEdgeStyle;fontSize=12;html=1;endArrow=ERmany;entryX=0.563;entryY=-0.017;entryDx=0;entryDy=0;entryPerimeter=0;exitX=0.5;exitY=1;exitDx=0;exitDy=0;" edge="1" parent="1" source="-22u8Rxw5Q-brh8yjIGj-61" target="-22u8Rxw5Q-brh8yjIGj-15">
          <mxGeometry width="100" height="100" relative="1" as="geometry">
            <mxPoint x="360" y="290" as="sourcePoint" />
            <mxPoint x="460" y="190" as="targetPoint" />
          </mxGeometry>
        </mxCell>
        <mxCell id="-22u8Rxw5Q-brh8yjIGj-64" value="match_id" style="ellipse;whiteSpace=wrap;html=1;align=center;fontStyle=4;" vertex="1" parent="1">
          <mxGeometry x="60" y="240" width="100" height="40" as="geometry" />
        </mxCell>
        <mxCell id="-22u8Rxw5Q-brh8yjIGj-65" value="Type" style="ellipse;whiteSpace=wrap;html=1;align=center;" vertex="1" parent="1">
          <mxGeometry x="10" y="300" width="100" height="40" as="geometry" />
        </mxCell>
        <mxCell id="-22u8Rxw5Q-brh8yjIGj-66" value="Date" style="ellipse;whiteSpace=wrap;html=1;align=center;" vertex="1" parent="1">
          <mxGeometry x="10" y="360" width="100" height="40" as="geometry" />
        </mxCell>
        <mxCell id="-22u8Rxw5Q-brh8yjIGj-67" value="Opponent" style="ellipse;whiteSpace=wrap;html=1;align=center;" vertex="1" parent="1">
          <mxGeometry x="60" y="420" width="100" height="40" as="geometry" />
        </mxCell>
        <mxCell id="-22u8Rxw5Q-brh8yjIGj-69" value="" style="endArrow=none;html=1;rounded=0;exitX=1;exitY=1;exitDx=0;exitDy=0;entryX=0.25;entryY=0;entryDx=0;entryDy=0;" edge="1" parent="1" source="-22u8Rxw5Q-brh8yjIGj-64" target="-22u8Rxw5Q-brh8yjIGj-15">
          <mxGeometry relative="1" as="geometry">
            <mxPoint x="50" y="290" as="sourcePoint" />
            <mxPoint x="210" y="290" as="targetPoint" />
          </mxGeometry>
        </mxCell>
        <mxCell id="-22u8Rxw5Q-brh8yjIGj-70" value="" style="endArrow=none;html=1;rounded=0;exitX=1;exitY=0.5;exitDx=0;exitDy=0;" edge="1" parent="1" source="-22u8Rxw5Q-brh8yjIGj-65">
          <mxGeometry relative="1" as="geometry">
            <mxPoint x="120" y="320" as="sourcePoint" />
            <mxPoint x="150" y="330" as="targetPoint" />
          </mxGeometry>
        </mxCell>
        <mxCell id="-22u8Rxw5Q-brh8yjIGj-71" value="" style="endArrow=none;html=1;rounded=0;exitX=0;exitY=0.75;exitDx=0;exitDy=0;entryX=1;entryY=0.5;entryDx=0;entryDy=0;" edge="1" parent="1" source="-22u8Rxw5Q-brh8yjIGj-15" target="-22u8Rxw5Q-brh8yjIGj-66">
          <mxGeometry relative="1" as="geometry">
            <mxPoint x="110" y="360" as="sourcePoint" />
            <mxPoint x="150" y="400" as="targetPoint" />
          </mxGeometry>
        </mxCell>
        <mxCell id="-22u8Rxw5Q-brh8yjIGj-72" value="" style="endArrow=none;html=1;rounded=0;exitX=1;exitY=0;exitDx=0;exitDy=0;entryX=0.25;entryY=1;entryDx=0;entryDy=0;" edge="1" parent="1" source="-22u8Rxw5Q-brh8yjIGj-67" target="-22u8Rxw5Q-brh8yjIGj-15">
          <mxGeometry relative="1" as="geometry">
            <mxPoint x="140" y="310" as="sourcePoint" />
            <mxPoint x="180" y="350" as="targetPoint" />
          </mxGeometry>
        </mxCell>
        <mxCell id="-22u8Rxw5Q-brh8yjIGj-73" value="player_id" style="ellipse;whiteSpace=wrap;html=1;align=center;fontStyle=4;" vertex="1" parent="1">
          <mxGeometry x="720" y="270" width="100" height="40" as="geometry" />
        </mxCell>
        <mxCell id="-22u8Rxw5Q-brh8yjIGj-74" value="Role" style="ellipse;whiteSpace=wrap;html=1;align=center;" vertex="1" parent="1">
          <mxGeometry x="690" y="210" width="100" height="40" as="geometry" />
        </mxCell>
        <mxCell id="-22u8Rxw5Q-brh8yjIGj-75" value="Season_score" style="ellipse;shape=doubleEllipse;margin=3;whiteSpace=wrap;html=1;align=center;" vertex="1" parent="1">
          <mxGeometry x="580" y="240" width="100" height="40" as="geometry" />
        </mxCell>
        <mxCell id="-22u8Rxw5Q-brh8yjIGj-76" value="Wickets" style="ellipse;whiteSpace=wrap;html=1;align=center;" vertex="1" parent="1">
          <mxGeometry x="520" y="170" width="100" height="40" as="geometry" />
        </mxCell>
        <mxCell id="-22u8Rxw5Q-brh8yjIGj-77" value="Run" style="ellipse;whiteSpace=wrap;html=1;align=center;" vertex="1" parent="1">
          <mxGeometry x="640" y="160" width="100" height="40" as="geometry" />
        </mxCell>
        <mxCell id="-22u8Rxw5Q-brh8yjIGj-78" value="" style="endArrow=none;html=1;rounded=0;exitX=0.5;exitY=1;exitDx=0;exitDy=0;entryX=0.5;entryY=0;entryDx=0;entryDy=0;" edge="1" parent="1" source="-22u8Rxw5Q-brh8yjIGj-77" target="-22u8Rxw5Q-brh8yjIGj-75">
          <mxGeometry relative="1" as="geometry">
            <mxPoint x="560" y="320" as="sourcePoint" />
            <mxPoint x="720" y="320" as="targetPoint" />
          </mxGeometry>
        </mxCell>
        <mxCell id="-22u8Rxw5Q-brh8yjIGj-81" value="" style="endArrow=none;html=1;rounded=0;exitX=0.776;exitY=0.985;exitDx=0;exitDy=0;exitPerimeter=0;entryX=0.5;entryY=0;entryDx=0;entryDy=0;" edge="1" parent="1" source="-22u8Rxw5Q-brh8yjIGj-76" target="-22u8Rxw5Q-brh8yjIGj-75">
          <mxGeometry relative="1" as="geometry">
            <mxPoint x="560" y="320" as="sourcePoint" />
            <mxPoint x="720" y="320" as="targetPoint" />
          </mxGeometry>
        </mxCell>
        <mxCell id="-22u8Rxw5Q-brh8yjIGj-82" value="Name" style="ellipse;whiteSpace=wrap;html=1;align=center;" vertex="1" parent="1">
          <mxGeometry x="745" y="340" width="75" height="40" as="geometry" />
        </mxCell>
        <mxCell id="-22u8Rxw5Q-brh8yjIGj-83" value="Email" style="ellipse;whiteSpace=wrap;html=1;align=center;" vertex="1" parent="1">
          <mxGeometry x="660" y="482.5" width="100" height="40" as="geometry" />
        </mxCell>
        <mxCell id="-22u8Rxw5Q-brh8yjIGj-84" value="Age" style="ellipse;whiteSpace=wrap;html=1;align=center;" vertex="1" parent="1">
          <mxGeometry x="730" y="420" width="70" height="40" as="geometry" />
        </mxCell>
        <mxCell id="-22u8Rxw5Q-brh8yjIGj-86" value="Score" style="ellipse;whiteSpace=wrap;html=1;align=center;" vertex="1" parent="1">
          <mxGeometry x="380" y="420" width="100" height="40" as="geometry" />
        </mxCell>
        <mxCell id="-22u8Rxw5Q-brh8yjIGj-87" value="" style="endArrow=none;html=1;rounded=0;exitX=0.5;exitY=0;exitDx=0;exitDy=0;entryX=0.5;entryY=1;entryDx=0;entryDy=0;" edge="1" parent="1" source="-22u8Rxw5Q-brh8yjIGj-86" target="-22u8Rxw5Q-brh8yjIGj-12">
          <mxGeometry relative="1" as="geometry">
            <mxPoint x="670" y="320" as="sourcePoint" />
            <mxPoint x="830" y="320" as="targetPoint" />
          </mxGeometry>
        </mxCell>
        <mxCell id="-22u8Rxw5Q-brh8yjIGj-88" value="" style="edgeStyle=entityRelationEdgeStyle;fontSize=12;html=1;endArrow=ERmany;exitX=0;exitY=0.5;exitDx=0;exitDy=0;entryX=1;entryY=0.5;entryDx=0;entryDy=0;" edge="1" parent="1" source="-22u8Rxw5Q-brh8yjIGj-12" target="-22u8Rxw5Q-brh8yjIGj-15">
          <mxGeometry width="100" height="100" relative="1" as="geometry">
            <mxPoint x="590" y="370" as="sourcePoint" />
            <mxPoint x="690" y="270" as="targetPoint" />
          </mxGeometry>
        </mxCell>
        <mxCell id="-22u8Rxw5Q-brh8yjIGj-89" value="" style="edgeStyle=entityRelationEdgeStyle;fontSize=12;html=1;endArrow=ERmany;exitX=1;exitY=0.5;exitDx=0;exitDy=0;entryX=0;entryY=0.5;entryDx=0;entryDy=0;" edge="1" parent="1" source="-22u8Rxw5Q-brh8yjIGj-12" target="-22u8Rxw5Q-brh8yjIGj-14">
          <mxGeometry width="100" height="100" relative="1" as="geometry">
            <mxPoint x="590" y="370" as="sourcePoint" />
            <mxPoint x="690" y="270" as="targetPoint" />
          </mxGeometry>
        </mxCell>
        <mxCell id="-22u8Rxw5Q-brh8yjIGj-90" value="" style="edgeStyle=entityRelationEdgeStyle;fontSize=12;html=1;endArrow=ERmany;exitX=1;exitY=0.5;exitDx=0;exitDy=0;entryX=0;entryY=0.5;entryDx=0;entryDy=0;" edge="1" parent="1" source="-22u8Rxw5Q-brh8yjIGj-31" target="-22u8Rxw5Q-brh8yjIGj-32">
          <mxGeometry width="100" height="100" relative="1" as="geometry">
            <mxPoint x="590" y="370" as="sourcePoint" />
            <mxPoint x="690" y="270" as="targetPoint" />
          </mxGeometry>
        </mxCell>
        <mxCell id="-22u8Rxw5Q-brh8yjIGj-91" value="" style="edgeStyle=orthogonalEdgeStyle;fontSize=12;html=1;endArrow=ERmany;entryX=0.5;entryY=1;entryDx=0;entryDy=0;" edge="1" parent="1" target="-22u8Rxw5Q-brh8yjIGj-14">
          <mxGeometry width="100" height="100" relative="1" as="geometry">
            <mxPoint x="570" y="505" as="sourcePoint" />
            <mxPoint x="700" y="590" as="targetPoint" />
            <Array as="points">
              <mxPoint x="570" y="440" />
              <mxPoint x="640" y="440" />
            </Array>
          </mxGeometry>
        </mxCell>
        <mxCell id="-22u8Rxw5Q-brh8yjIGj-93" value="" style="fontSize=12;html=1;endArrow=ERone;endFill=1;edgeStyle=orthogonalEdgeStyle;entryX=0.5;entryY=1;entryDx=0;entryDy=0;exitX=0.5;exitY=0;exitDx=0;exitDy=0;" edge="1" parent="1" source="-22u8Rxw5Q-brh8yjIGj-31" target="-22u8Rxw5Q-brh8yjIGj-15">
          <mxGeometry width="100" height="100" relative="1" as="geometry">
            <mxPoint x="280" y="505" as="sourcePoint" />
            <mxPoint x="350" y="380" as="targetPoint" />
          </mxGeometry>
        </mxCell>
        <mxCell id="-22u8Rxw5Q-brh8yjIGj-94" value="Score" style="ellipse;whiteSpace=wrap;html=1;align=center;" vertex="1" parent="1">
          <mxGeometry x="60" y="565" width="100" height="40" as="geometry" />
        </mxCell>
        <mxCell id="-22u8Rxw5Q-brh8yjIGj-95" value="Result" style="ellipse;whiteSpace=wrap;html=1;align=center;" vertex="1" parent="1">
          <mxGeometry x="60" y="505" width="100" height="40" as="geometry" />
        </mxCell>
        <mxCell id="-22u8Rxw5Q-brh8yjIGj-96" value="" style="endArrow=none;html=1;rounded=0;exitX=1;exitY=0.5;exitDx=0;exitDy=0;entryX=0;entryY=0.5;entryDx=0;entryDy=0;" edge="1" parent="1" source="-22u8Rxw5Q-brh8yjIGj-95" target="-22u8Rxw5Q-brh8yjIGj-31">
          <mxGeometry relative="1" as="geometry">
            <mxPoint x="330" y="500" as="sourcePoint" />
            <mxPoint x="490" y="500" as="targetPoint" />
          </mxGeometry>
        </mxCell>
        <mxCell id="-22u8Rxw5Q-brh8yjIGj-97" value="" style="endArrow=none;html=1;rounded=0;exitX=1;exitY=0.5;exitDx=0;exitDy=0;entryX=0;entryY=0.5;entryDx=0;entryDy=0;" edge="1" parent="1" source="-22u8Rxw5Q-brh8yjIGj-94" target="-22u8Rxw5Q-brh8yjIGj-31">
          <mxGeometry relative="1" as="geometry">
            <mxPoint x="330" y="500" as="sourcePoint" />
            <mxPoint x="240" y="550" as="targetPoint" />
          </mxGeometry>
        </mxCell>
        <mxCell id="-22u8Rxw5Q-brh8yjIGj-99" value="" style="endArrow=none;html=1;rounded=0;entryX=0.5;entryY=1;entryDx=0;entryDy=0;exitX=0.5;exitY=0;exitDx=0;exitDy=0;" edge="1" parent="1" source="-22u8Rxw5Q-brh8yjIGj-14" target="-22u8Rxw5Q-brh8yjIGj-75">
          <mxGeometry relative="1" as="geometry">
            <mxPoint x="330" y="370" as="sourcePoint" />
            <mxPoint x="490" y="370" as="targetPoint" />
          </mxGeometry>
        </mxCell>
        <mxCell id="-22u8Rxw5Q-brh8yjIGj-100" value="" style="endArrow=none;html=1;rounded=0;entryX=0.5;entryY=1;entryDx=0;entryDy=0;exitX=0.5;exitY=0;exitDx=0;exitDy=0;" edge="1" parent="1" source="-22u8Rxw5Q-brh8yjIGj-14" target="-22u8Rxw5Q-brh8yjIGj-74">
          <mxGeometry relative="1" as="geometry">
            <mxPoint x="330" y="370" as="sourcePoint" />
            <mxPoint x="490" y="370" as="targetPoint" />
          </mxGeometry>
        </mxCell>
        <mxCell id="-22u8Rxw5Q-brh8yjIGj-101" value="" style="endArrow=none;html=1;rounded=0;entryX=0;entryY=1;entryDx=0;entryDy=0;exitX=0.5;exitY=0;exitDx=0;exitDy=0;" edge="1" parent="1" source="-22u8Rxw5Q-brh8yjIGj-14" target="-22u8Rxw5Q-brh8yjIGj-73">
          <mxGeometry relative="1" as="geometry">
            <mxPoint x="330" y="370" as="sourcePoint" />
            <mxPoint x="490" y="370" as="targetPoint" />
          </mxGeometry>
        </mxCell>
        <mxCell id="-22u8Rxw5Q-brh8yjIGj-102" value="" style="endArrow=none;html=1;rounded=0;entryX=0.5;entryY=0;entryDx=0;entryDy=0;exitX=0.75;exitY=1;exitDx=0;exitDy=0;" edge="1" parent="1" source="-22u8Rxw5Q-brh8yjIGj-14" target="-22u8Rxw5Q-brh8yjIGj-83">
          <mxGeometry relative="1" as="geometry">
            <mxPoint x="330" y="370" as="sourcePoint" />
            <mxPoint x="490" y="370" as="targetPoint" />
          </mxGeometry>
        </mxCell>
        <mxCell id="-22u8Rxw5Q-brh8yjIGj-103" value="" style="endArrow=none;html=1;rounded=0;entryX=0;entryY=0.5;entryDx=0;entryDy=0;exitX=1;exitY=0.5;exitDx=0;exitDy=0;" edge="1" parent="1" source="-22u8Rxw5Q-brh8yjIGj-14" target="-22u8Rxw5Q-brh8yjIGj-82">
          <mxGeometry relative="1" as="geometry">
            <mxPoint x="330" y="370" as="sourcePoint" />
            <mxPoint x="490" y="370" as="targetPoint" />
          </mxGeometry>
        </mxCell>
        <mxCell id="-22u8Rxw5Q-brh8yjIGj-104" value="" style="endArrow=none;html=1;rounded=0;entryX=0;entryY=0;entryDx=0;entryDy=0;exitX=0.75;exitY=1;exitDx=0;exitDy=0;" edge="1" parent="1" source="-22u8Rxw5Q-brh8yjIGj-14" target="-22u8Rxw5Q-brh8yjIGj-84">
          <mxGeometry relative="1" as="geometry">
            <mxPoint x="330" y="370" as="sourcePoint" />
            <mxPoint x="490" y="370" as="targetPoint" />
          </mxGeometry>
        </mxCell>
        <mxCell id="-22u8Rxw5Q-brh8yjIGj-105" value="Stadium_id" style="ellipse;whiteSpace=wrap;html=1;align=center;fontStyle=4;" vertex="1" parent="1">
          <mxGeometry x="10" y="140" width="100" height="40" as="geometry" />
        </mxCell>
        <mxCell id="-22u8Rxw5Q-brh8yjIGj-106" value="Location" style="ellipse;whiteSpace=wrap;html=1;align=center;" vertex="1" parent="1">
          <mxGeometry x="250" y="30" width="100" height="40" as="geometry" />
        </mxCell>
        <mxCell id="-22u8Rxw5Q-brh8yjIGj-107" value="Total_seat" style="ellipse;whiteSpace=wrap;html=1;align=center;" vertex="1" parent="1">
          <mxGeometry x="120" y="30" width="100" height="40" as="geometry" />
        </mxCell>
        <mxCell id="-22u8Rxw5Q-brh8yjIGj-108" value="Name" style="ellipse;whiteSpace=wrap;html=1;align=center;" vertex="1" parent="1">
          <mxGeometry x="10" y="60" width="100" height="40" as="geometry" />
        </mxCell>
        <mxCell id="-22u8Rxw5Q-brh8yjIGj-110" value="" style="endArrow=none;html=1;rounded=0;exitX=1;exitY=0.5;exitDx=0;exitDy=0;entryX=0;entryY=0.5;entryDx=0;entryDy=0;" edge="1" parent="1" source="-22u8Rxw5Q-brh8yjIGj-105" target="-22u8Rxw5Q-brh8yjIGj-1">
          <mxGeometry relative="1" as="geometry">
            <mxPoint x="330" y="280" as="sourcePoint" />
            <mxPoint x="490" y="280" as="targetPoint" />
          </mxGeometry>
        </mxCell>
        <mxCell id="-22u8Rxw5Q-brh8yjIGj-111" value="" style="endArrow=none;html=1;rounded=0;exitX=1;exitY=1;exitDx=0;exitDy=0;entryX=0;entryY=0;entryDx=0;entryDy=0;" edge="1" parent="1" source="-22u8Rxw5Q-brh8yjIGj-108" target="-22u8Rxw5Q-brh8yjIGj-1">
          <mxGeometry relative="1" as="geometry">
            <mxPoint x="330" y="280" as="sourcePoint" />
            <mxPoint x="490" y="280" as="targetPoint" />
          </mxGeometry>
        </mxCell>
        <mxCell id="-22u8Rxw5Q-brh8yjIGj-112" value="" style="endArrow=none;html=1;rounded=0;exitX=0.5;exitY=1;exitDx=0;exitDy=0;entryX=0.5;entryY=0;entryDx=0;entryDy=0;" edge="1" parent="1" source="-22u8Rxw5Q-brh8yjIGj-107" target="-22u8Rxw5Q-brh8yjIGj-1">
          <mxGeometry relative="1" as="geometry">
            <mxPoint x="330" y="280" as="sourcePoint" />
            <mxPoint x="490" y="280" as="targetPoint" />
          </mxGeometry>
        </mxCell>
        <mxCell id="-22u8Rxw5Q-brh8yjIGj-113" value="" style="endArrow=none;html=1;rounded=0;exitX=0.5;exitY=1;exitDx=0;exitDy=0;" edge="1" parent="1" source="-22u8Rxw5Q-brh8yjIGj-106">
          <mxGeometry relative="1" as="geometry">
            <mxPoint x="330" y="280" as="sourcePoint" />
            <mxPoint x="220" y="120" as="targetPoint" />
          </mxGeometry>
        </mxCell>
        <mxCell id="-22u8Rxw5Q-brh8yjIGj-114" value="Has" style="shape=rhombus;perimeter=rhombusPerimeter;whiteSpace=wrap;html=1;align=center;" vertex="1" parent="1">
          <mxGeometry x="350" y="210" width="120" height="60" as="geometry" />
        </mxCell>
        <mxCell id="-22u8Rxw5Q-brh8yjIGj-115" value="" style="fontSize=12;html=1;endArrow=ERone;endFill=1;exitX=0.5;exitY=1;exitDx=0;exitDy=0;entryX=0.893;entryY=-0.017;entryDx=0;entryDy=0;edgeStyle=orthogonalEdgeStyle;entryPerimeter=0;" edge="1" parent="1" source="-22u8Rxw5Q-brh8yjIGj-114" target="-22u8Rxw5Q-brh8yjIGj-15">
          <mxGeometry width="100" height="100" relative="1" as="geometry">
            <mxPoint x="250" y="220" as="sourcePoint" />
            <mxPoint x="230" y="190" as="targetPoint" />
          </mxGeometry>
        </mxCell>
        <mxCell id="-22u8Rxw5Q-brh8yjIGj-116" value="Umpire" style="whiteSpace=wrap;html=1;align=center;" vertex="1" parent="1">
          <mxGeometry x="360" y="130" width="100" height="40" as="geometry" />
        </mxCell>
        <mxCell id="-22u8Rxw5Q-brh8yjIGj-117" value="" style="edgeStyle=orthogonalEdgeStyle;fontSize=12;html=1;endArrow=ERmany;entryX=0.5;entryY=1;entryDx=0;entryDy=0;exitX=0.5;exitY=0;exitDx=0;exitDy=0;" edge="1" parent="1" source="-22u8Rxw5Q-brh8yjIGj-114" target="-22u8Rxw5Q-brh8yjIGj-116">
          <mxGeometry width="100" height="100" relative="1" as="geometry">
            <mxPoint x="250" y="280" as="sourcePoint" />
            <mxPoint x="227.55999999999995" y="328.98" as="targetPoint" />
          </mxGeometry>
        </mxCell>
        <mxCell id="-22u8Rxw5Q-brh8yjIGj-121" value="Umpire_id" style="ellipse;whiteSpace=wrap;html=1;align=center;fontStyle=4;" vertex="1" parent="1">
          <mxGeometry x="520" y="110" width="100" height="40" as="geometry" />
        </mxCell>
        <mxCell id="-22u8Rxw5Q-brh8yjIGj-122" value="Type" style="ellipse;whiteSpace=wrap;html=1;align=center;" vertex="1" parent="1">
          <mxGeometry x="500" y="50" width="100" height="40" as="geometry" />
        </mxCell>
        <mxCell id="-22u8Rxw5Q-brh8yjIGj-123" value="Name" style="ellipse;whiteSpace=wrap;html=1;align=center;" vertex="1" parent="1">
          <mxGeometry x="380" y="30" width="100" height="40" as="geometry" />
        </mxCell>
        <mxCell id="-22u8Rxw5Q-brh8yjIGj-124" value="" style="endArrow=none;html=1;rounded=0;exitX=0.5;exitY=1;exitDx=0;exitDy=0;entryX=0.5;entryY=0;entryDx=0;entryDy=0;" edge="1" parent="1" source="-22u8Rxw5Q-brh8yjIGj-123" target="-22u8Rxw5Q-brh8yjIGj-116">
          <mxGeometry relative="1" as="geometry">
            <mxPoint x="330" y="280" as="sourcePoint" />
            <mxPoint x="490" y="280" as="targetPoint" />
          </mxGeometry>
        </mxCell>
        <mxCell id="-22u8Rxw5Q-brh8yjIGj-125" value="" style="endArrow=none;html=1;rounded=0;entryX=0;entryY=1;entryDx=0;entryDy=0;exitX=0.86;exitY=0.005;exitDx=0;exitDy=0;exitPerimeter=0;" edge="1" parent="1" source="-22u8Rxw5Q-brh8yjIGj-116" target="-22u8Rxw5Q-brh8yjIGj-122">
          <mxGeometry relative="1" as="geometry">
            <mxPoint x="330" y="280" as="sourcePoint" />
            <mxPoint x="490" y="280" as="targetPoint" />
          </mxGeometry>
        </mxCell>
        <mxCell id="-22u8Rxw5Q-brh8yjIGj-126" value="" style="endArrow=none;html=1;rounded=0;entryX=0;entryY=0.5;entryDx=0;entryDy=0;exitX=1;exitY=0.5;exitDx=0;exitDy=0;" edge="1" parent="1" source="-22u8Rxw5Q-brh8yjIGj-116" target="-22u8Rxw5Q-brh8yjIGj-121">
          <mxGeometry relative="1" as="geometry">
            <mxPoint x="330" y="280" as="sourcePoint" />
            <mxPoint x="490" y="280" as="targetPoint" />
          </mxGeometry>
        </mxCell>
        <mxCell id="-22u8Rxw5Q-brh8yjIGj-128" value="M" style="text;html=1;align=center;verticalAlign=middle;resizable=0;points=[];autosize=1;strokeColor=none;" vertex="1" parent="1">
          <mxGeometry x="540" y="330" width="30" height="20" as="geometry" />
        </mxCell>
        <mxCell id="-22u8Rxw5Q-brh8yjIGj-129" value="M" style="text;html=1;align=center;verticalAlign=middle;resizable=0;points=[];autosize=1;strokeColor=none;" vertex="1" parent="1">
          <mxGeometry x="275" y="330" width="30" height="20" as="geometry" />
        </mxCell>
        <mxCell id="-22u8Rxw5Q-brh8yjIGj-130" value="M" style="text;html=1;align=center;verticalAlign=middle;resizable=0;points=[];autosize=1;strokeColor=none;" vertex="1" parent="1">
          <mxGeometry x="610" y="380" width="30" height="20" as="geometry" />
        </mxCell>
        <mxCell id="-22u8Rxw5Q-brh8yjIGj-131" value="M" style="text;html=1;align=center;verticalAlign=middle;resizable=0;points=[];autosize=1;strokeColor=none;" vertex="1" parent="1">
          <mxGeometry x="340" y="522.5" width="30" height="20" as="geometry" />
        </mxCell>
        <mxCell id="-22u8Rxw5Q-brh8yjIGj-134" value="M" style="text;html=1;align=center;verticalAlign=middle;resizable=0;points=[];autosize=1;strokeColor=none;" vertex="1" parent="1">
          <mxGeometry x="410" y="170" width="30" height="20" as="geometry" />
        </mxCell>
        <mxCell id="-22u8Rxw5Q-brh8yjIGj-135" value="M" style="text;html=1;align=center;verticalAlign=middle;resizable=0;points=[];autosize=1;strokeColor=none;" vertex="1" parent="1">
          <mxGeometry x="190" y="300" width="30" height="20" as="geometry" />
        </mxCell>
        <mxCell id="-22u8Rxw5Q-brh8yjIGj-136" value="1" style="text;html=1;align=center;verticalAlign=middle;resizable=0;points=[];autosize=1;strokeColor=none;" vertex="1" parent="1">
          <mxGeometry x="210" y="380" width="20" height="20" as="geometry" />
        </mxCell>
        <mxCell id="-22u8Rxw5Q-brh8yjIGj-137" value="1" style="text;html=1;align=center;verticalAlign=middle;resizable=0;points=[];autosize=1;strokeColor=none;" vertex="1" parent="1">
          <mxGeometry x="260" y="300" width="20" height="20" as="geometry" />
        </mxCell>
        <mxCell id="-22u8Rxw5Q-brh8yjIGj-138" value="1" style="text;html=1;align=center;verticalAlign=middle;resizable=0;points=[];autosize=1;strokeColor=none;" vertex="1" parent="1">
          <mxGeometry x="195" y="180" width="20" height="20" as="geometry" />
        </mxCell>
        <mxCell id="-22u8Rxw5Q-brh8yjIGj-139" value="1" style="text;html=1;align=center;verticalAlign=middle;resizable=0;points=[];autosize=1;strokeColor=none;" vertex="1" parent="1">
          <mxGeometry x="480" y="522.5" width="20" height="20" as="geometry" />
        </mxCell>
        <mxCell id="-22u8Rxw5Q-brh8yjIGj-140" value="" style="fontSize=12;html=1;endArrow=ERone;endFill=1;edgeStyle=orthogonalEdgeStyle;entryX=1;entryY=0.5;entryDx=0;entryDy=0;exitX=0;exitY=0.5;exitDx=0;exitDy=0;" edge="1" parent="1" source="-22u8Rxw5Q-brh8yjIGj-18" target="-22u8Rxw5Q-brh8yjIGj-32">
          <mxGeometry width="100" height="100" relative="1" as="geometry">
            <mxPoint x="580" y="515" as="sourcePoint" />
            <mxPoint x="650" y="390" as="targetPoint" />
          </mxGeometry>
        </mxCell>
      </root>
    </mxGraphModel>
  </diagram>
</mxfile>
